<?xml version="1.0" encoding="utf-8"?>
<!-- Generator: Adobe Illustrator 17.0.0, SVG Export Plug-In . SVG Version: 6.00 Build 0)  -->
<!DOCTYPE svg PUBLIC "-//W3C//DTD SVG 1.1//EN" "http://www.w3.org/Graphics/SVG/1.1/DTD/svg11.dtd">
<svg version="1.1" id="Layer_1" xmlns="http://www.w3.org/2000/svg" xmlns:xlink="http://www.w3.org/1999/xlink" x="0px" y="0px"
	 width="102px" height="102px" viewBox="0 0 102 102" enable-background="new 0 0 102 102" xml:space="preserve">
<g>
	<path fill="#FFFFFF" d="M55.801,39.442H43.376V27.007c0-0.563-0.46-1.022-1.024-1.022s-1.023,0.459-1.023,1.022v12.435H28.893
		c-0.564,0-1.024,0.46-1.024,1.024s0.46,1.023,1.024,1.023h12.435v12.427c0,0.563,0.459,1.021,1.023,1.021s1.024-0.458,1.024-1.021
		V41.489H55.8c0.563,0,1.023-0.459,1.023-1.023C56.824,39.902,56.364,39.442,55.801,39.442z"/>
	<path fill="#FFFFFF" d="M98.832,99.282L69.661,68.938l0.622-0.624c7.438-7.466,11.534-17.356,11.534-27.847
		C81.817,18.704,64.114,1,42.352,1C20.591,1,2.887,18.704,2.887,40.466c0,21.761,17.704,39.466,39.465,39.466
		c9.145,0,18.076-3.226,25.15-9.085l0.645-0.533l29.205,30.38c0.253,0.265,0.573,0.305,0.739,0.305c0.265,0,0.519-0.101,0.713-0.286
		C99.203,100.329,99.219,99.684,98.832,99.282z M42.352,77.884c-20.632,0-37.418-16.786-37.418-37.418
		c0-20.633,16.786-37.419,37.418-37.419c20.633,0,37.419,16.786,37.419,37.419C79.771,61.099,62.985,77.884,42.352,77.884z"/>
</g>
</svg>
