<?xml version="1.0" encoding="UTF-8" standalone="no"?>
<svg
   xmlns:dc="http://purl.org/dc/elements/1.1/"
   xmlns:cc="http://creativecommons.org/ns#"
   xmlns:rdf="http://www.w3.org/1999/02/22-rdf-syntax-ns#"
   xmlns:svg="http://www.w3.org/2000/svg"
   xmlns="http://www.w3.org/2000/svg"
   xmlns:sodipodi="http://sodipodi.sourceforge.net/DTD/sodipodi-0.dtd"
   xmlns:inkscape="http://www.inkscape.org/namespaces/inkscape"
   width="1440"
   height="810.25"
   viewBox="0 0 1440 810.25"
   fill="none"
   version="1.1"
   id="svg204"
   sodipodi:docname="head_main_interpolation.svg"
   inkscape:version="1.0.2-2 (e86c870879, 2021-01-15)">
  <metadata
     id="metadata210">
    <rdf:RDF>
      <cc:Work
         rdf:about="">
        <dc:format>image/svg+xml</dc:format>
        <dc:type
           rdf:resource="http://purl.org/dc/dcmitype/StillImage" />
        <dc:title></dc:title>
      </cc:Work>
    </rdf:RDF>
  </metadata>
  <defs
     id="defs208" />
  <sodipodi:namedview
     pagecolor="#ffffff"
     bordercolor="#666666"
     borderopacity="1"
     objecttolerance="10"
     gridtolerance="10"
     guidetolerance="10"
     inkscape:pageopacity="0"
     inkscape:pageshadow="2"
     inkscape:window-width="1600"
     inkscape:window-height="837"
     id="namedview206"
     showgrid="false"
     inkscape:zoom="0.26568559"
     inkscape:cx="750.17843"
     inkscape:cy="623.97373"
     inkscape:window-x="-8"
     inkscape:window-y="-8"
     inkscape:window-maximized="1"
     inkscape:current-layer="svg204"
     inkscape:document-rotation="0"
     inkscape:snap-page="false" />
  <path
     id="path202"
     style="color:#000000;font-style:normal;font-variant:normal;font-weight:normal;font-stretch:normal;font-size:medium;line-height:normal;font-family:sans-serif;font-variant-ligatures:normal;font-variant-position:normal;font-variant-caps:normal;font-variant-numeric:normal;font-variant-alternates:normal;font-variant-east-asian:normal;font-feature-settings:normal;font-variation-settings:normal;text-indent:0;text-align:start;text-decoration:none;text-decoration-line:none;text-decoration-style:solid;text-decoration-color:#000000;letter-spacing:normal;word-spacing:normal;text-transform:none;writing-mode:lr-tb;direction:ltr;text-orientation:mixed;dominant-baseline:auto;baseline-shift:baseline;text-anchor:start;white-space:normal;shape-padding:0;shape-margin:0;inline-size:0;clip-rule:nonzero;display:inline;overflow:visible;visibility:visible;opacity:1;isolation:auto;mix-blend-mode:normal;color-interpolation:sRGB;color-interpolation-filters:linearRGB;solid-color:#000000;solid-opacity:1;vector-effect:none;fill:#0e9bb4;fill-opacity:1;fill-rule:nonzero;stroke:none;stroke-width:1;stroke-linecap:butt;stroke-linejoin:miter;stroke-miterlimit:4;stroke-dasharray:none;stroke-dashoffset:0;stroke-opacity:1;color-rendering:auto;image-rendering:auto;shape-rendering:auto;text-rendering:auto;enable-background:accumulate;stop-color:#000000;stop-opacity:1"
     d="M 181.85156,0 C 154.16806,12.82918 121.21948,24.343355 86.078125,28.736328 76.120731,30.081998 66.473392,30.806177 57.09375,30.917969 68.01616,31.042196 79.297886,30.319104 91.009766,28.736328 126.1509,24.343351 159.09966,12.829193 186.7832,0 Z M 57.09375,30.917969 C 43.710192,30.765749 30.866685,29.338251 18.455078,26.623047 12.161266,25.184387 6.0066445,23.466007 0,21.453125 v 1.414063 c 4.4509901,1.426725 8.9624319,2.682169 13.525391,3.755859 13.929,3.047154 28.397426,4.475737 43.568359,4.294922 z M 252.12109,0 c -2.52027,1.5957699 -5.04365,3.1910525 -7.55468,4.7890625 C 228.36541,15.355742 211.45969,25.921003 194.55469,35.783203 163.56069,54.098803 114.95795,77.3475 60.71875,83.6875 39.428296,86.120877 19.189478,85.920377 0,82.646484 v 0.626954 c 18.862434,3.350487 39.256411,3.57021 60.71875,1.117187 53.5342,-6.34 102.13794,-29.586744 133.83594,-47.902344 16.905,-9.8622 33.81072,-20.429393 50.01172,-30.9960935 C 247.36982,3.6665739 250.19784,1.8326337 253.02539,0 Z m 75.83203,0 c -11.32789,3.5987871 -22.89023,8.0067644 -34.77929,13.238281 -30.994,14.0889 -61.28414,33.109603 -90.86914,50.720703 -15.497,9.8622 -31.69744,19.725013 -47.89844,28.882813 C 124.11725,109.7484 77.626178,130.88158 26.205078,136.51758 17.239644,137.52791 8.5040534,137.98744 0,137.91797 v 1.06641 c 9.6091695,0.29238 19.517566,-0.052 29.726562,-1.0586 51.4211,-5.636 97.911098,-26.76918 127.496098,-43.67578 16.201,-9.1578 32.40339,-19.020612 47.90039,-28.882812 29.585,-18.315602 59.87418,-36.629951 90.86718,-50.71875 C 309.46827,8.7177152 322.53095,3.8281074 335.3418,0 Z m 135.17774,0 c 0.31142,0.10156256 0.62436,0.19176294 0.93555,0.29492188 C 463.777,0.19332287 463.4868,0.10031503 463.19727,0 Z m 0.93555,0.29492188 c 7.17387,2.51846132 14.31172,5.41587362 21.4082,8.71679692 28.176,13.3844002 54.9417,32.4055252 79.5957,57.7656252 33.811,34.518096 61.28278,78.896826 80.30078,126.798826 19.019,48.607 27.47338,100.03247 25.35938,147.23047 -3.522,75.376 -26.76745,149.341 -70.43945,226.125 -42.264,74.672 -97.91294,140.88917 -141.58594,190.20117 -11.974,14.088 -24.65303,28.17663 -37.33203,42.26563 -3.23493,3.60843 -6.47935,7.23315 -9.72071,10.85156 h 5.99414 c 2.41604,-2.6765 4.8349,-5.362 7.24805,-8.0332 11.975,-14.089 24.65499,-28.17763 37.33399,-42.26563 43.673,-49.312 99.32098,-115.52917 141.58398,-190.20117 43.673,-77.488 66.21345,-151.45408 70.43945,-226.83008 2.114,-47.198 -6.33842,-98.62347 -25.35742,-147.23047 -19.019,-47.902 -46.48978,-92.28093 -80.30078,-126.798825 -24.655,-25.36 -51.42166,-45.08435 -79.59766,-58.46875 C 480.77484,6.4355092 472.464,3.0787783 464.06641,0.29492188 Z M 620.98438,0 c 1.3257,1.3462902 2.64812,2.7002414 3.95898,4.0839844 29.14735,29.7321906 53.9462,66.2235666 72.8125,106.6699256 C 678.9553,69.745549 654.31336,32.753041 624.23828,2.6757812 623.35833,1.7713532 622.46675,0.89080036 621.58008,0 Z m 76.77148,110.75391 c 3.65628,7.97518 7.09547,16.09953 10.30664,24.35742 19.723,50.72 28.17542,104.25736 25.35742,153.56836 -2.817,40.858 -10.56629,82.41934 -24.6543,123.27734 -12.67898,36.631 -30.28898,74.67289 -52.125,112.71289 -45.78597,78.193 -105.65939,146.52227 -152.15039,197.94727 -12.679,14.089 -26.76531,28.88365 -39.44531,42.97265 -13.71223,14.79055 -27.47487,29.6558 -41.14648,44.66016 h 2.3789 c 19.21411,-21.18472 38.76384,-41.99973 58.17578,-62.49805 6.84992,-7.49734 13.79336,-15.00154 20.74219,-22.3164 47.195,-51.425 106.36439,-119.75622 152.15039,-197.94922 21.836,-37.336 39.446,-75.37594 52.125,-112.71094 14.088,-41.562 21.8363,-83.12442 24.6543,-123.98242 2.817,-50.015 -5.63537,-102.84844 -25.35938,-154.27344 -3.40065,-8.74517 -7.0791,-17.33891 -11.00976,-25.76562 z M 484.45312,747.75195 c -6.34354,6.94314 -12.60888,13.88016 -18.70507,20.6543 -12.85245,13.86315 -25.74704,27.79563 -38.57032,41.84375 h 3.37305 c 24.65558,-27.20394 49.88518,-53.78742 74.64453,-79.88672 13.384,-14.088 27.47255,-28.88083 41.56055,-43.67383 50.012,-52.834 113.40772,-123.98422 162.01172,-205.69922 23.949,-39.449 42.26356,-78.89757 56.35156,-117.64257 14.793,-42.971 23.94958,-85.94111 26.76758,-128.91211 3.522,-51.424 -4.93138,-107.07518 -25.35938,-160.613284 C 756.77348,47.693865 744.43241,22.94596 730.02148,0 h -5.20703 c 14.5302,23.157399 26.96699,48.229999 36.78321,74.525391 20.428,53.537799 28.87942,109.190249 25.35742,160.615229 -2.818,42.97101 -11.97363,85.94111 -26.76563,128.91211 -13.384,38.745 -32.40156,78.19458 -56.35156,117.64258 -48.604,81.012 -112.00067,152.86427 -162.01367,205.69727 -13.383,14.793 -27.4696,29.58678 -41.5586,43.67578 -5.24948,5.53358 -10.53018,11.10569 -15.8125,16.68359 z M 818.68555,0 c 25.02266,59.093103 37.06365,123.46618 32.36914,183.71484 -3.522,44.38 -13.38299,89.46375 -29.58399,133.84375 -14.792,40.154 -34.51404,81.0131 -59.87304,121.8711 -52.126,84.533 -119.74813,158.49931 -172.57813,213.44531 -14.792,14.794 -29.58387,29.58786 -43.67187,44.38086 C 509.49434,734.01891 472.77578,771.3756 437.99414,810.25 h 0.46289 c 35.14,-39.38121 72.01313,-77.19789 108.29883,-114.4043 14.792,-14.089 29.58487,-29.5849 43.67187,-44.3789 52.831,-54.946 120.45313,-128.91427 172.57813,-213.44727 25.359,-40.858 45.08105,-81.71614 59.87305,-121.86914 16.202,-44.38 26.06393,-89.46375 29.58593,-133.84375 C 857.12152,122.53678 845.52354,58.706433 820.97852,0 Z m 75.58398,0 c 11.11762,43.111993 15.42389,87.279286 11.73242,129.47266 -3.522,46.494 -14.79422,93.68951 -31.69922,139.47851 -15.497,41.563 -36.62948,84.53478 -63.39648,126.80078 -55.648,88.056 -126.79145,164.13532 -182.43945,221.19532 -14.792,15.497 -30.28903,30.99506 -45.08203,45.78906 -47.07263,47.64266 -95.50703,96.20558 -140.17188,147.51367 h 3.16602 c 44.3116,-51.04719 92.96775,-99.38387 139.82421,-146.80859 14.79301,-14.793 30.29004,-30.29107 45.08204,-45.78907 55.648,-57.06 126.79145,-133.14031 182.43945,-221.19531 26.767,-42.267 48.60261,-85.23778 64.09961,-126.80078 16.905,-45.788 27.47222,-92.98552 31.69922,-139.47852 C 913.23499,87.754563 908.86003,43.335014 897.60742,0 Z m 16.91797,0 c 7.80525,35.092395 11.23563,69.670744 9.60352,103.40625 -2.818,45.789 -11.2695,91.57811 -26.0625,136.66211 -13.384,40.858 -32.40269,83.1255 -57.05664,124.6875 -21.837,37.336 -47.90054,75.37522 -78.89454,114.82422 -25.358,32.404 -55.64718,66.92201 -90.86718,105.66601 -18.315,19.725 -36.62641,39.45071 -54.94141,58.47071 -16.201,17.611 -33.10767,35.92611 -50.01367,53.53711 -31.11148,33.2225 -66.16986,71.57858 -99.26563,112.99609 h 4.28516 c 32.66468,-40.47279 67.14488,-78.33397 97.79883,-111.58789 16.905,-18.315 33.81072,-35.92611 50.01172,-53.53711 18.314,-19.02 37.33336,-38.74375 54.94336,-58.46875 35.22,-38.744 65.50918,-73.26202 90.86718,-105.66602 30.994,-40.154 57.05558,-77.49017 78.89258,-114.82617 23.949,-41.562 43.67458,-83.82754 57.0586,-124.68554 15.49599,-45.084 23.94754,-91.57711 26.06054,-136.66211 C 925.25186,70.826499 922.18045,35.55422 914.10742,0 Z m 12.22266,0 c 5.90331,28.187419 8.87426,56.125974 8.64843,82.978516 -0.704,44.379604 -7.04265,89.465704 -19.72265,133.845704 -11.974,40.858 -28.88175,81.71534 -50.71875,123.27734 -19.723,36.631 -43.67174,73.96702 -72.55274,113.41602 -23.949,33.108 -52.12542,67.62601 -85.23242,105.66601 -21.131,24.656 -43.67181,49.3108 -65.50781,73.9668 -11.27,12.68 -22.5415,25.36102 -33.8125,38.04102 -36.21874,41.3056 -78.15486,88.35672 -116.01367,139.05859 h 1.37304 c 37.75755,-50.81585 79.1911,-98.38348 116.05079,-139.05859 l 33.81054,-38.04102 c 21.837,-23.951 44.37777,-49.3108 65.50977,-73.9668 33.811,-38.744 61.28242,-73.26201 85.23242,-105.66601 28.88,-40.154 52.82973,-76.7851 72.55273,-114.1211 21.837,-41.562 39.4468,-83.12434 50.7168,-123.27734 12.679,-44.38 19.01866,-89.46385 19.72266,-133.843749 C 933.68947,55.575333 930.81173,27.890947 925.07227,0 Z m 15.23046,0 c 3.69169,19.89094 5.78301,39.402054 6.10352,58.324219 1.19777,36.528678 -2.20213,74.074891 -9.73437,111.341801 8.0344,-38.27855 11.67268,-76.489981 10.4375,-114.160161 C 944.83924,37.266451 942.91254,18.763852 939.625,0 Z m -3.63085,169.66602 c -1.1306,5.38653 -2.34699,10.77423 -3.65039,16.1621 -1.59353,6.86502 -3.36772,13.77589 -5.29883,20.71876 1.62969,-5.75775 3.16996,-11.49221 4.5957,-17.19532 1.58402,-6.54761 3.02517,-13.11333 4.35352,-19.68554 z m -8.94922,36.88086 c -3.16213,11.17186 -6.70292,22.43718 -10.60938,33.76757 3.95779,-11.32668 7.50111,-22.59249 10.60938,-33.76757 z m -10.60938,33.76757 c -7.71311,22.07392 -16.99737,44.37436 -27.76367,66.67774 -32.403,66.922 -78.18834,136.6639 -144.40234,218.3789 -29.585,36.631 -60.57847,72.55766 -92.98047,110.59766 l -2.11328,2.11328 c -40.151,47.198 -85.23174,100.0326 -124.67774,155.68359 -3.94195,5.53181 -7.75212,11.01836 -11.5,16.48438 h 1.7168 c 2.96887,-4.30228 5.98314,-8.61965 9.07812,-12.96289 39.447,-55.651 84.52869,-108.48559 124.67969,-155.68359 l 2.11133,-2.11329 c 32.402,-38.04 63.39742,-73.96665 92.98242,-110.59765 66.213,-81.715 111.99839,-151.45395 144.40039,-218.37696 10.93442,-23.48953 20.46226,-46.97891 28.46875,-70.20117 z M 952.68164,0 c 1.89559,11.571595 3.26217,23.027916 4.03125,34.375 3.522,42.2666 0.70395,85.23691 -7.74805,127.50391 -7.749,39.449 -20.42603,79.60286 -37.33203,119.75586 -28.88,66.923 -70.44161,135.95782 -131.72461,217.67382 -30.289,40.153 -61.98603,79.60107 -89.45703,113.41407 -4.227,4.931 -7.74956,9.86199 -11.97656,14.79296 -47.64362,58.37851 -96.319,118.07451 -137.44922,182.73438 h 4.41992 c 40.93946,-64.11807 89.25325,-123.3698 136.55078,-181.32422 4.227,-4.931 7.74957,-9.86197 11.97657,-14.79297 26.767,-33.813 59.16998,-73.26201 89.45898,-113.41601 61.283,-81.011 102.84266,-150.75083 131.72266,-217.67383 16.906,-40.153 29.58303,-81.01186 37.33203,-119.75586 7.748,-42.267 10.56602,-85.237207 7.74805,-127.503907 C 959.43651,24.015771 958.05232,12.074218 956.10938,0 Z m 16.43164,0 c 0.36264,2.7817763 0.69623,5.552902 0.98633,8.3085938 4.93,40.8577502 4.22672,83.1255282 -2.11328,124.6874962 -5.635,38.745 -16.20114,78.19358 -30.99414,117.64258 -25.358,67.627 -62.69292,135.95775 -119.04492,216.96875 -23.245,33.814 -51.42035,71.14814 -84.52735,114.11914 -8.452,11.271 -16.90442,21.83925 -25.35742,32.40625 -48.93876,62.51 -98.87714,126.3544 -139.26953,196.11719 h 1.2168 c 40.23073,-69.21287 90.14862,-132.62081 138.75781,-194.70898 8.452,-10.567 16.90442,-21.8373 25.35742,-32.4043 33.106,-42.971 60.57734,-80.30806 84.52734,-114.1211 56.352,-80.307 93.68497,-149.34175 119.04297,-216.96874 14.793,-39.44902 25.35914,-78.89858 30.99414,-117.64258 5.635,-41.562524 7.04328,-83.82773 2.11328,-124.68555 C 970.46387,6.4990271 970.05692,3.2552287 969.61914,0 Z m 14.0918,0 c 4.72283,36.013741 5.46058,72.528493 1.68359,109.04492 -3.522,37.336 -11.27022,76.78335 -23.94922,115.52735 -11.975,35.927 -26.76811,72.55957 -45.78711,110.59961 -16.905,33.81299 -36.62812,68.33001 -60.57812,105.66601 -23.245,35.926 -49.3067,73.96722 -79.5957,114.82422 -11.271,16.203 -23.95079,33.10942 -35.92579,48.60742 C 689.62349,669.82178 638.97912,736.6119 599.90625,810.25 h 1.69922 c 39.22063,-74.47496 90.36111,-141.91481 140.26367,-208.09375 12.679,-16.203 24.65586,-32.40542 36.63086,-48.60742 30.289,-41.563 56.3507,-78.89722 79.5957,-114.82422 23.95,-37.335 43.67508,-71.85302 60.58008,-105.66602 19.723,-38.04 34.51516,-74.67165 45.78516,-110.59765 11.975,-39.449 20.42722,-78.19438 23.94922,-116.23438 C 992.08845,70.662845 991.49535,35.09949 987.09961,0 Z m 20.44532,0 c 3.3424,26.894185 4.5235,54.231377 3.0801,81.570312 -0.9627,25.491318 -4.2264,51.311388 -9.33597,77.458988 5.51327,-27.35187 9.03907,-54.34794 10.04497,-80.982425 0.9196,-25.912346 0.01,-52.125794 -2.9122,-78.046875 z m -6.25587,159.0293 c -2.21502,10.98903 -4.74177,22.03381 -7.56836,33.13867 -17.61,66.922 -48.60454,138.07155 -93.68555,215.56055 -21.83699,37.336 -46.49101,76.08029 -74.66601,115.52929 -14.793,21.133 -30.29011,42.26544 -45.78711,63.39844 C 724.17096,657.18991 671.05843,729.86447 633.07422,810.25 h 0.87695 c 37.86933,-79.37298 90.22293,-150.50482 141.03321,-220.07031 15.49698,-20.429 30.99315,-42.26739 45.78515,-63.40039 28.176,-40.153 52.83097,-78.8973 74.66797,-115.5293 45.785,-77.489 76.07359,-147.93355 93.68359,-215.56055 3.12838,-12.29143 5.89921,-24.51043 8.27344,-36.66015 z M 1018.0273,0 c 2.0098,17.28687 3.1788,34.63626 3.4922,51.986328 0.71,36.6311 -2.8086,73.965862 -10.5586,112.005862 -13.38468,67.627 -40.15365,138.07147 -80.30465,214.85547 -20.428,38.04 -43.67139,76.78537 -69.73437,116.23437 -17.61001,25.36 -35.92429,52.12828 -54.23829,77.48828 C 753.68283,646.91347 699.34624,723.95273 663.37305,810.25 h 4.59765 C 703.94231,725.66033 757.36694,649.92523 809.5,576.79688 c 18.315,-25.35902 36.62828,-51.42329 54.23828,-77.48829 26.063,-39.448 50.01233,-78.19437 69.73633,-116.23437 40.15,-76.784 66.91469,-147.22847 80.30469,-214.85547 7.04,-37.335 11.2705,-75.374759 10.5605,-112.005859 0,-18.764414 -1.3301,-37.528449 -3.7324,-56.212891 z m 20.8008,0 c 0.9828,8.3950086 1.7887,16.804613 2.4121,25.214844 2.11,35.9268 0.7093,73.262356 -4.2207,110.597656 -9.87,68.331 -31.6999,138.07234 -67.62692,214.15234 -18.314,38.744 -40.15069,78.1935 -64.80469,116.9375 -19.018,30.291 -40.8552,61.28605 -61.2832,90.87305 -50.012,71.853 -100.72806,145.82025 -134.53907,228.24023 -3.27499,8.14114 -6.32025,16.21752 -9.14453,24.23438 H 701 c 2.63259,-7.33971 5.45456,-14.71435 8.46875,-22.12109 33.811,-82.42 85.23302,-156.38724 134.54102,-228.24024 20.428,-30.291 42.2652,-61.28712 61.2832,-91.57812 24.655,-39.449 46.49069,-78.1935 64.80469,-116.9375 35.92304,-75.376 57.76304,-145.81939 67.62304,-214.15039 4.93,-37.335332 6.3385,-74.67106 4.2285,-110.59766 -0.4949,-8.881192 -1.2685,-17.7617514 -2.291,-26.625 z m 19.9043,0 c 3.7653,33.659965 4.8885,68.532726 1.5371,103.4082 -2.82,35.223 -9.1603,71.1483 -18.3203,107.7793 -9.15,34.518 -21.1299,70.44509 -35.9199,106.37109 -16.202,39.449 -36.63,78.89758 -59.875,117.64258 -20.427,34.517 -42.96797,68.33269 -66.91797,103.55469 -45.082,67.627 -92.27466,137.36639 -123.97266,214.15039 -8.1539,19.47979 -14.91646,38.59247 -20.30273,57.34375 h 4.68359 c 5.05667,-16.71506 11.19865,-33.71515 18.43555,-51.00391 31.698,-76.784 78.89261,-146.52339 123.97461,-214.15039 23.949,-35.222 46.48997,-69.03473 66.91797,-103.55273 23.245,-38.745 42.96802,-78.19458 59.87694,-117.64258 14.79,-35.927 27.4699,-71.85409 35.9199,-106.37109 9.16,-36.632 15.5003,-72.55925 18.3203,-107.78125 2.81,-36.630924 2.1109,-73.262098 -2.1191,-108.4843781 C 1060.9141,0.84295561 1060.8505,0.4208991 1060.793,0 Z m 22.8692,0 c 3.4713,26.065758 5.2393,52.40804 4.7187,78.751953 -0.7,35.222097 -4.2195,70.445187 -11.2695,107.076167 -7.04,34.517 -16.901,70.4441 -30.291,106.3711 -14.79,39.448 -33.0995,78.89858 -54.93949,117.64258 -21.837,38.744 -46.49168,76.08029 -72.55469,115.52929 -41.55898,63.4 -84.5274,128.9135 -114.8164,200.0625 -11.975,28.178 -21.1317,56.35505 -27.4707,83.12305 -0.12114,0.56532 -0.23445,1.12856 -0.35352,1.69336 h 1.55469 c 0.07,-0.32981 0.13632,-0.6583 0.20703,-0.98828 6.34,-26.769 15.4957,-54.947 27.4707,-83.125 29.585,-71.149 73.25936,-136.6625 114.81836,-200.0625 26.063,-39.449 50.71674,-76.78234 72.55274,-115.52734 21.83198,-38.74402 40.15218,-78.19358 54.24218,-117.64258 13.38,-35.927 23.2391,-71.8531 30.2891,-106.3711 7.04,-35.927 11.2695,-71.85299 11.2695,-106.371091 C 1087.5518,53.344009 1085.7211,26.52524 1082.123,0 Z m 20.8398,0 c 12.1913,84.902148 4.3666,172.7078 -23.1621,262.61523 -12.68,40.153 -28.8786,79.60171 -49.3086,118.34571 -22.54,42.267 -48.60134,83.12578 -76.77734,126.80078 -38.037,59.878 -78.18922,121.16481 -106.36524,187.38281 -11.975,28.178 -21.1307,55.65085 -27.4707,81.71485 -2.7212,11.15792 -4.80482,22.31412 -6.3457,33.39062 h 5.10547 c 1.58684,-10.26789 3.64894,-20.6806 6.17187,-31.27734 6.339,-26.065 15.49671,-54.24085 27.47071,-81.71485 28.177,-66.218 67.62323,-127.50481 106.36523,-187.38281 28.176,-42.971 54.2354,-84.53378 76.7754,-126.80078 20.43,-38.744 37.3405,-78.8967 49.3105,-118.3457 C 1112.4786,174.27383 1120.0658,85.701179 1107.1562,0 Z m 29.7266,0 c 1.0377,6.5239381 1.9628,13.051187 2.7617,19.578125 8.45,69.7401 3.5209,140.889985 -14.7891,211.333985 -10.57,40.154 -25.3608,80.30773 -44.3808,119.05273 -22.54,46.493 -50.7198,90.16724 -80.30277,137.36524 -35.22,55.651 -71.84717,113.41612 -97.91015,174.70312 -23.27185,52.83601 -35.30323,101.73867 -37.61524,148.2168 h 1.55274 c 2.65054,-45.63528 14.66883,-93.62945 37.4707,-145.39844 26.767,-61.287 62.69015,-119.05212 97.91015,-174.70312 29.58397,-46.493 57.76467,-90.87319 80.30467,-137.36719 19.02,-38.744 33.8092,-78.89678 44.3692,-119.05078 18.32,-71.148 23.2507,-142.298486 14.8007,-211.333986 C 1135.4322,14.914046 1134.3613,7.448205 1133.1465,0 Z m 27.914,0 c 12.1205,67.66212 11.0195,136.56434 -3.3125,204.14453 -8.46,40.153 -21.8392,81.01186 -39.4492,119.75586 -22.54,50.016 -52.1311,97.21447 -83.1211,147.23047 -32.4,52.128 -66.21417,106.36969 -90.86717,163.42969 -26.063,59.174 -38.74219,112.00656 -38.74219,162.72656 0,4.3499 0.0933,8.66853 0.26368,12.96289 h 1.49218 c -0.22102,-4.5514 -0.34765,-9.10943 -0.34765,-13.66797 0,-50.72 12.67918,-104.25756 38.74218,-162.72656 24.654,-57.06 58.46917,-110.59669 90.86917,-163.42969 30.99,-50.016 60.5811,-97.21447 83.1211,-147.23047 17.61,-38.744 30.9894,-79.60186 39.4394,-119.75586 C 1171.776,135.41496 1172.9013,67.390727 1161.5449,0 Z m 31.4571,0 c 11.0869,58.13345 12.0491,116.5893 3.2714,174.55859 -6.34,40.858 -18.3214,81.01194 -34.5214,120.46094 -22.54,52.833 -54.2386,105.66477 -85.2286,156.38477 -29.59,48.607 -60.5803,99.32715 -84.52925,152.16015 -26.063,58.469 -38.74227,111.30424 -39.44727,160.61524 0,15.57562 1.12618,30.96303 3.36133,46.07031 h 2.18164 c -2.17006,-14.88119 -3.08098,-30.03354 -2.72461,-45.36719 0.705,-50.016 13.38427,-102.84936 39.44727,-161.31836 23.24099,-52.833 54.24129,-102.84915 84.53129,-152.16015 30.99,-50.72 63.3885,-103.55177 85.2285,-156.38477 16.2,-39.449 28.1797,-79.60294 34.5097,-120.46094 C 1206.4051,116.5893 1205.4455,58.13345 1194.3535,0 Z m 36.1445,0 c 6.1179,30.686092 9.372,61.238608 9.6621,91.654297 C 1237.0625,61.212825 1233.8302,30.601991 1227.7461,0 Z m 31.5,0 c 8.3791,39.501863 11.5774,78.837047 9.5859,117.49609 -2.12,40.858 -10.5701,81.71614 -24.6601,121.86914 -21.13,59.174 -55.64,117.64197 -88.75,173.29297 -25.36,42.267 -51.4196,86.64735 -71.8496,131.02735 -26.77,57.06 -40.1494,108.48579 -40.8594,157.09179 -0.7,29.587 2.8195,58.46849 11.2695,86.64649 2.276,7.73222 4.8503,15.31648 7.7598,22.82617 h 4.6308 c -3.3691,-8.42997 -6.304,-16.94381 -8.8613,-25.64453 -8.46,-27.473 -11.9795,-57.05949 -11.2695,-86.64649 1.41,-47.902 14.7896,-99.32679 40.8496,-157.09179 20.43,-45.084 46.4916,-88.75839 71.8516,-131.02539 33.11,-56.356 67.62,-114.11897 88.75,-173.29297 14.09,-40.153 22.5482,-81.01114 24.6582,-121.86914 1.951,-37.873595 -1.0836,-76.180358 -9.086,-114.67969 z m 37.7715,0 c 6.0867,29.026171 9.1445,57.874423 9.1445,86.501953 0,40.153097 -6.3395,81.013017 -19.0195,121.166017 -19.72,61.992 -54.941,121.86889 -89.461,180.33789 -23.24,39.449 -47.8999,80.30614 -66.9199,121.86914 -27.47,58.469 -40.8497,107.77972 -42.2597,156.38672 -0.71,29.587 2.8205,59.17348 10.5605,86.64648 5.6823,20.02857 13.5739,39.08202 23.1934,57.3418 h 8.4179 c -10.1694,-18.84379 -18.5063,-38.56216 -24.5605,-59.45508 -7.75,-26.769 -11.2703,-55.6512 -10.5703,-84.5332 1.41,-47.198 14.7986,-96.51031 41.5586,-153.57031 19.02,-40.858 42.9707,-81.71607 66.2207,-121.16407 34.51,-58.469 70.4401,-119.05109 90.1601,-181.74609 13.38,-40.154 19.7207,-81.7172 19.7207,-123.279297 C 1313.3009,57.870131 1310.3605,29.022199 1304.3828,0 Z m 43.1035,0 c 3.7653,19.030505 6.148,38.075053 6.9023,56.917969 2.11,41.5623 -2.8218,83.123341 -14.0918,123.277341 -19.02,65.513 -55.6491,128.20902 -90.8691,188.79102 -21.13,36.631 -42.9693,74.67094 -61.2793,112.71094 -27.47,57.06 -40.8607,105.66823 -42.9707,152.86523 -0.7,28.883 2.1094,57.0602 9.8594,84.5332 6.34,23.247 15.5008,45.79011 28.8808,69.03711 4.3102,7.34991 8.9062,14.7021 13.8282,22.11719 h 3.7636 c -4.7439,-7.17658 -9.1912,-14.29695 -13.3613,-21.41406 -12.68,-23.247 -22.5409,-45.78916 -28.8809,-69.03516 -7.75,-26.77 -11.2693,-55.6512 -9.8593,-84.5332 2.11,-47.198 15.489,-95.80524 42.959,-152.86524 17.62,-38.04 40.161,-76.07893 61.291,-112.71093 35.22,-60.582 71.8491,-123.27702 90.8691,-188.79102 11.97,-40.858 16.901,-81.715043 14.791,-123.277343 C 1351.1232,38.453407 1348.6756,19.28314 1344.7969,0 Z m 42.2441,0 c 1.7503,9.8483069 3.1213,19.673408 4.0977,29.443359 4.23,40.8578 0.6998,83.125421 -9.1602,123.982421 -17.61,67.627 -54.9403,133.13994 -91.5703,195.83594 -6.1303,10.51135 -12.3224,21.16641 -18.4629,31.88672 6.8273,-11.88583 13.7391,-23.69359 20.5723,-35.41016 36.63,-62.696 73.9701,-127.50386 91.5801,-195.13086 10.56,-40.858 13.3804,-82.42022 9.1504,-123.98242 C 1387.6265,17.787115 1386.4313,8.9043107 1384.916,0 Z m 39.4746,0 c 5.9508,41.500942 4.6421,82.927936 -4.3769,123.83984 -4.6308,21.04609 -11.3482,41.77543 -19.4707,62.23047 8.7575,-21.59631 15.9774,-43.49898 20.8711,-65.7539 8.7721,-39.75477 10.2554,-79.994418 4.873,-120.31641 z m -23.8476,186.07031 c -18.9627,46.76296 -45.1558,92.08758 -70.6992,136.42188 -22.54,39.449 -45.7807,79.60186 -63.3907,119.75586 -11.4111,25.18155 -19.7392,49.04219 -25.2421,71.95507 5.5181,-21.83645 13.3743,-44.53725 23.832,-68.43359 17.61,-40.858 40.8506,-81.00987 63.3906,-119.75391 26.1842,-45.44643 53.0448,-91.93465 72.1094,-139.94531 z M 348.11523,54.095703 c -68.327,0.7045 -126.79253,35.222249 -183.14453,69.035157 -14.792,8.454 -30.28815,17.61145 -45.78515,26.06445 C 94.690596,162.41561 49.590186,183.35545 0,188.57227 v 7 c 50.971672,-5.19113 97.17218,-26.45777 122.00195,-40.03711 15.497,-8.454 30.99316,-17.60958 45.78516,-26.76758 55.648,-33.109016 113.41012,-67.627533 180.32812,-68.332033 73.258,-0.7044 128.90385,40.858003 162.71485,75.375003 65.509,66.923 104.95756,169.06728 101.43554,259.23633 -3.522,88.75999 -29.58614,204.99264 -195.11914,397.30664 -5.31637,5.9419 -10.63267,11.89266 -15.94921,17.89648 h 8.39843 c 3.92529,-4.51653 7.85005,-9.05162 11.77539,-13.66992 93.685,-108.484 190.18835,-241.62413 196.52735,-400.82813 4.227,-92.283 -36.6278,-195.83501 -102.8418,-264.16601 C 465.74864,80.161321 407.98923,53.391203 348.11523,54.095703 Z m 889.05667,55.550777 c -0.09,3.12755 -0.2125,6.25197 -0.3653,9.375 0.153,-3.12389 0.2751,-6.24824 0.3653,-9.375 z m -936.95315,14.19141 c -28.881,0 -58.46606,6.33953 -90.16406,19.01953 -28.176,11.271 -56.351,27.47263 -82.41407,42.26563 -14.08799,7.749 -28.87967,16.20412 -43.67187,23.95312 C 63.020456,219.81961 33.466101,232.60448 0,239.94727 v 1.67773 c 34.624898,-6.88981 65.250277,-20.0964 86.785156,-31.14062 14.792604,-7.749 29.584874,-16.20218 43.671874,-23.95118 53.535,-30.291 108.4782,-61.99211 173.2832,-61.28711 4.931,0 9.15689,0.001 14.08789,0.70508 16.13279,1.42406 31.94684,4.77511 47.65626,10.25 -16.88737,-6.31437 -34.2196,-10.11596 -51.17774,-11.6582 -4.931,-0.704 -9.15689,-0.70508 -14.08789,-0.70508 z m 65.26563,12.36328 c 6.26062,2.34092 12.4624,5.01804 18.55859,8.06641 26.063,12.68 50.01173,30.29111 72.55273,53.53711 30.994,31.7 56.35094,71.85234 73.96094,115.52734 17.61,44.38 26.76933,90.8747 25.36133,133.8457 -2.114,68.331 -21.13467,135.95835 -57.76367,206.40235 C 467.37922,713.28739 426.92417,767.07532 391.82617,810.25 h 5.28906 c 34.3525,-42.59139 74.26226,-96.29024 105.26563,-155.26172 36.629,-70.444 55.64872,-138.06939 57.76172,-206.40039 0.704,-42.971 -7.74838,-89.4657 -25.35938,-133.8457 -17.609,-43.675 -42.96693,-83.8293 -73.96093,-115.5293 -22.541,-22.542 -46.48974,-40.85711 -72.55274,-53.53711 -7.58678,-3.67851 -15.17414,-6.82206 -22.78515,-9.47461 z M 1440,186.83984 c -16.8402,41.39769 -38.5029,82.53761 -59.2305,122.26563 -21.13,40.153 -42.9699,81.01122 -59.1699,122.57422 -18.31,46.493 -28.8802,88.05383 -30.9902,126.79883 -2.82,52.833 7.7504,102.14595 32.4004,150.75195 16.3013,32.596 39.1691,65.85189 69.8183,101.01953 h 0.3594 c -29.7762,-35.02251 -52.0768,-67.59558 -68.0684,-98.90625 -24.65,-49.311 -35.2184,-98.62208 -32.3984,-151.45508 2.11,-39.449 11.9802,-81.01178 30.9902,-126.80078 16.91,-41.563 38.04,-82.42122 59.17,-122.57422 19.8773,-38.09851 40.5996,-77.0658 57.1191,-116.89453 z m -1187.68164,1.80469 c -60.578,-0.704 -113.4078,27.47427 -164.125001,54.94727 -14.0878,7.749 -27.470393,14.79389 -41.558593,21.83789 C 34.004331,271.91629 18.045266,278.88811 0,284.68359 v 3.83399 c 18.954014,-5.99163 35.703809,-13.22016 48.748047,-19.56641 14.0881,-7.044 28.174894,-14.79289 41.558594,-21.83789 50.716399,-26.769 103.546999,-55.65119 164.124999,-54.24219 3.522,0 7.04441,0.70508 10.56641,0.70508 28.88,2.113 57.76142,11.97581 85.23242,28.88281 28.881,17.611 54.9425,41.5626 78.1875,72.5586 14.11613,19.12597 26.74709,40.31695 37.1582,62.42187 -10.79252,-23.7678 -24.18979,-46.21788 -39.26953,-66.65039 -23.245,-30.291 -49.30845,-54.94564 -78.18945,-72.55664 -27.471,-16.907 -56.35242,-26.76981 -85.23242,-28.88281 -3.522,-0.704 -7.04341,-0.70508 -10.56641,-0.70508 z m 213.25781,168.79492 c 4.83544,10.64882 9.15061,21.56159 12.85547,32.67774 11.975,35.927 18.31533,73.26237 17.61133,108.48437 -1.409,65.514 -18.31683,129.61711 -51.42383,196.53906 -20.88183,41.76689 -46.73059,80.87113 -71.71484,115.10938 h 4.6875 c 24.17672,-33.38339 48.97648,-71.25453 69.14062,-111.58594 33.812,-66.923 50.71788,-131.73201 51.42188,-196.54101 0.705,-34.517 -5.63438,-71.8523 -17.60938,-107.7793 -4.23398,-12.45338 -9.27435,-24.81392 -14.96875,-36.9043 z m -265.14062,-99.8789 c -55.4505,-0.41026 -103.194659,24.13598 -150.2793,48.02148 -12.6792,6.34 -26.063466,13.38453 -39.447266,19.01953 C 7.3912453,326.11847 3.7988577,327.68669 0,329.26953 v 3.02149 c 4.6435025,-1.92671 9.3846106,-4.00954 14.230469,-6.28125 13.3837,-6.34 26.063765,-12.67954 39.447265,-19.01954 47.898796,-24.655 97.911876,-50.01534 155.671876,-47.90234 2.114,0 4.92997,8e-5 7.04297,0.70508 16.91277,1.23738 33.58128,5.15373 49.86914,11.56445 -17.40299,-7.26173 -35.25758,-11.646 -53.39063,-12.97265 -2.113,0 -4.93092,-8e-5 -7.04492,-0.70508 -1.805,-0.066 -3.6019,-0.10591 -5.39062,-0.11914 z m 65.82617,13.79687 c 10.31522,4.30423 20.47236,9.61636 30.43359,15.9082 27.472,16.90702 52.12494,40.85824 73.96094,69.74024 21.132,27.474 38.03867,59.87841 50.01367,93.69141 11.975,33.814 18.3125,69.03553 18.3125,102.14453 -0.704,61.991 -15.49615,122.57273 -45.78515,186.67773 -11.87116,24.59137 -25.45173,48.36368 -39.4961,70.73047 h 5.07031 c 13.49362,-21.65986 26.51246,-44.65642 37.94727,-68.61719 30.994,-63.4 45.78711,-124.68673 45.78711,-186.67773 0,-33.109 -6.33945,-68.33161 -18.31445,-102.84961 -11.975,-33.109 -28.87972,-65.51341 -50.01172,-93.69141 -21.836,-29.587 -46.49089,-52.83128 -73.96289,-69.73828 -11.09219,-7.00623 -22.42907,-12.78185 -33.95508,-17.31836 z m 939.10738,-6.6289 c -21.84,55.651 -54.9396,111.30184 -87.3496,164.83984 32.41,-53.538 65.5096,-108.48484 87.3496,-164.83984 z m -87.3496,164.83984 c -27.47,45.789 -56.3497,92.9858 -78.1797,141.5918 22.54,-48.606 50.7097,-95.8028 78.1797,-141.5918 z m -78.1797,141.5918 c -22.8905,50.72017 -35.9951,97.09567 -39.3281,141.0332 3.3366,-43.80575 16.4426,-89.70607 39.3281,-141.0332 z M 1440,277.76172 c -2.8457,6.00262 -5.6923,11.99429 -8.5195,17.96289 -19.72,40.858 -40.1504,82.41855 -55.6504,124.68555 -17.61,47.198 -26.7609,89.46506 -28.8809,128.91406 -2.82,54.947 7.7504,106.36984 32.4004,157.08984 14.3485,29.84668 34.3171,60.62936 60.6504,92.72852 V 786.4707 c -21.5085,-27.70924 -38.2836,-54.06411 -50.7793,-80.05664 -24.66,-50.72 -35.2202,-102.14284 -32.4102,-157.08984 2.12,-39.449 11.269,-81.71606 28.879,-128.91406 15.15,-41.31273 35.0072,-81.93971 54.3105,-121.90625 z M 152.15625,325.0625 c -21.51546,-0.0237 -41.83009,3.72655 -61.361328,9.58008 21.317848,-6.06099 43.560408,-9.45658 67.134768,-7.92578 h 3.52148 c 28.176,2.114 55.64706,11.97581 82.41406,28.88281 26.063,16.202 49.30833,38.74475 69.73633,66.21875 19.723,26.768 35.92344,57.05781 47.89844,88.75781 11.27,32.405 17.60945,65.51477 18.31445,96.50977 0.704,58.469 -11.97626,116.2344 -39.44726,176.8164 -3.97066,8.90766 -8.17246,17.69879 -12.54102,26.34766 h 1.51953 c 4.58214,-9.07567 8.98448,-18.33506 13.13477,-27.75781 26.767,-60.582 40.15226,-118.34546 39.44726,-176.81446 -0.704,-30.995 -6.33945,-64.80976 -18.31445,-96.50976 -11.27,-31.7 -27.47036,-62.69577 -47.19336,-88.75977 -20.428,-27.474 -44.37733,-50.01479 -69.73633,-66.21679 -26.767,-16.907 -54.23993,-26.76982 -81.71093,-28.88282 h -3.52149 c -3.1239,-0.1623 -6.22128,-0.2427 -9.29492,-0.24609 z m -61.361328,9.58008 c -27.729463,7.8839 -53.893454,20.27877 -79.38086,32.22656 C 7.6761641,368.62843 3.8539185,370.38706 0,372.14648 v 0.72852 c 5.298567,-2.49091 10.540832,-5.01279 15.638672,-7.41211 24.309735,-11.39573 49.033038,-22.99116 75.15625,-30.82031 z M 1440,387.57422 c -4.2503,11.12244 -8.2707,22.29155 -11.9492,33.50976 -12.3689,36.57453 -20.615,70.26688 -24.457,101.71875 4.086,-30.65021 11.8065,-63.04797 23.7558,-98.90039 3.982,-11.56945 8.2258,-23.08571 12.6504,-34.55273 z m -36.4062,135.22851 c -1.4539,10.90304 -2.4575,21.59133 -3.0137,32.12696 -2.81,57.06 8.4594,110.59669 33.1094,163.42969 1.9872,4.19538 4.108,8.40975 6.3105,12.63671 v -4.84375 c -1.942,-3.78279 -3.8295,-7.55692 -5.6094,-11.31445 -24.65,-52.833 -35.9215,-106.37164 -33.1015,-163.43164 0.3334,-9.32921 1.1144,-18.86171 2.3047,-28.60352 z M 98.054688,390.92969 C 62.86459,390.87373 30.942573,401.45782 0,414.04102 v 2.5625 c 35.892478,-14.75558 73.01337,-27.16557 114.95508,-23.66993 19.99226,1.5377 39.60955,7.1999 58.85547,16.67383 -20.14707,-10.32821 -40.70356,-16.46926 -61.67188,-18.08203 -4.75468,-0.39628 -9.4479,-0.58833 -14.083982,-0.5957 z m 75.755862,18.67773 c 6.24895,3.20347 12.45879,6.79653 18.6289,10.79883 23.95,15.498 46.49185,36.63139 66.21485,63.40039 19.019,24.656 34.51503,54.24308 45.08203,83.83008 11.27,30.291 17.60945,61.99005 18.31445,90.87305 1.5938,54.19236 -9.07332,104.489 -26.91016,151.74023 h 3.37696 c 17.52027,-47.04678 27.9355,-97.11164 26.34961,-151.03516 -0.704,-29.587 -7.04346,-60.58204 -18.31446,-90.87304 -11.27,-29.587 -26.76703,-58.47008 -45.08203,-83.83008 -19.723,-26.065 -41.55889,-47.19731 -66.21289,-62.69531 -7.09611,-4.60296 -14.24675,-8.66449 -21.44726,-12.20899 z m 1076.97855,0.75977 c -7.7822,14.17134 -15.2819,28.36725 -22.1797,42.44726 -27.47,57.061 -40.8499,104.96296 -43.6699,150.75196 -1.41,28.882 1.4111,57.05812 8.4511,83.82812 6.34,23.246 15.4997,45.78903 28.1797,68.33203 9.853,17.86038 21.8624,35.72164 36.0195,54.52344 h 4.8067 c -15.3261,-20.09567 -28.2528,-39.07885 -38.7168,-58.04688 -12.68,-23.24599 -21.8299,-45.08503 -28.1699,-68.33203 -7.05,-26.769 -9.8593,-55.65012 -8.4493,-83.82812 2.11,-46.493 16.2,-94.394 43.67,-150.75 6.2722,-13.07217 13.0307,-26.04761 20.0586,-38.92578 z M 50.283203,456.5332 C 32.879216,456.48232 16.191872,459.10253 0,463.17383 v 4.05078 c 19.828859,-4.92937 40.406069,-7.65621 62.130859,-5.95899 1.4087,0.70502 2.817863,0.70508 4.226563,0.70508 26.0628,2.817 51.421098,11.97574 75.371098,28.17774 22.541,15.498 43.67232,35.22195 61.98632,59.87695 17.61,23.951 32.40275,50.72044 42.96875,78.89844 10.566,28.882 16.90546,57.06028 18.31446,85.23828 1.55421,28.37259 -0.54455,56.74637 -6.16211,85.5918 6.14444,-30.06 8.48325,-59.58698 6.86523,-89.11329 -1.409,-27.47298 -7.7465,-56.35628 -18.3125,-85.23828 -10.566,-28.178 -25.35875,-55.65143 -42.96875,-78.89843 -18.315,-24.656 -39.44728,-45.08296 -61.98828,-59.87696 -24.654,-16.202 -50.01074,-26.06481 -75.36914,-28.88281 -1.409,-0.704 -2.817566,-0.70508 -4.226562,-0.70508 -4.226391,-0.33019 -8.410111,-0.49375 -12.552735,-0.50586 z M 258.83594,799.75391 c -0.71342,3.49019 -1.49687,6.99074 -2.3125,10.49609 h 0.11133 c 0.78268,-3.50582 1.52128,-7.00495 2.20117,-10.49609 z m 979.63866,-285.0625 c -4.8206,19.18709 -7.8401,37.7101 -9.1543,55.76562 -2.11,33.109 2.1105,64.80977 11.9805,96.50977 8.45,28.178 21.8296,55.64925 40.8496,84.53125 13.111,20.06688 28.3602,39.62411 44.8105,58.75195 h 4.2168 c -17.5169,-20.11905 -33.768,-40.79437 -47.6172,-62.27344 -19.02,-28.882 -32.3996,-56.3552 -40.8496,-84.5332 -9.87,-31.7 -13.3904,-63.39881 -11.9804,-96.50781 0.9231,-16.95094 3.4652,-34.30738 7.7441,-52.24414 z M 0,525.90625 v 0.33398 c 3.0750228,0.0934 6.1719163,0.26495 9.296875,0.53907 2.81761,0 6.33855,0.70505 9.15625,0.70508 46.4904,6.34 91.573175,36.63128 128.201175,85.23828 33.812,45.084 55.64792,101.43936 59.16992,153.56836 0.54807,7.45422 0.83795,14.92624 0.87695,22.41992 -0.0238,-7.73012 -0.3117,-15.43694 -0.87695,-23.125 -3.522,-52.128 -25.35792,-107.78036 -59.16992,-153.56836 -35.924,-47.903 -81.710197,-78.19323 -127.496097,-84.5332 C 12.666016,526.54188 6.285757,526.04608 0,525.90625 Z m 206.70117,262.80469 c 0.0221,7.15742 -0.19778,14.33601 -0.63476,21.53906 h 0.043 c 0.42228,-7.20265 0.62904,-14.3818 0.59179,-21.53906 z M 0,600.6582 v 3.46485 c 32.294203,12.94025 62.891004,38.01994 88.900391,72.70117 29.777599,39.0435 49.606429,87.41171 55.988279,133.42578 h 1.06641 C 140.44749,763.60534 119.83914,714.32128 89.605469,674.00781 63.930613,639.04388 32.746957,613.83289 0,600.6582 Z m 0,103.02344 v 1.29492 c 12.286849,10.91313 23.938555,23.68789 34.662109,38.06836 15.492201,20.28852 28.275137,43.28258 37.751953,66.95703 C 62.739869,785.5612 49.590655,761.90325 33.957031,740.92969 23.438895,726.82502 12.027496,714.34842 0,703.68164 Z" />
  <g
     id="g126" />
</svg>
