<svg width="50" height="51" viewBox="0 0 50 51" fill="none" xmlns="http://www.w3.org/2000/svg">
<rect y="0.661133" width="50" height="50" fill="#2566BD" fill-opacity="0.6"/>
<path d="M26.9381 16.8444C27.9149 17.0478 28.8125 17.5576 29.5162 18.3086C30.2199 19.0597 30.6976 20.0177 30.8881 21.0602L26.9381 16.8444ZM26.9381 12.5752C28.9674 12.8158 30.8597 13.7857 32.3044 15.3256C33.749 16.8655 34.6601 18.884 34.8881 21.0495L30.9131 16.8123L26.9381 12.5752ZM33.8881 29.5665V32.7684C33.8893 33.0656 33.8322 33.3598 33.7206 33.6322C33.6091 33.9045 33.4454 34.149 33.2402 34.35C33.035 34.5509 32.7927 34.7039 32.5289 34.7991C32.265 34.8943 31.9855 34.9297 31.7081 34.903C28.631 34.5461 25.6751 33.4238 23.0781 31.6264C20.6619 29.9877 18.6135 27.8014 17.0781 25.2226C15.3881 22.4383 14.3364 19.2682 14.0081 15.9692C13.9831 15.674 14.016 15.3766 14.1046 15.0957C14.1932 14.8149 14.3357 14.5568 14.5229 14.338C14.7101 14.1191 14.9379 13.9442 15.1919 13.8245C15.4459 13.7047 15.7205 13.6428 15.9981 13.6425H18.9981C19.4834 13.6374 19.9539 13.8208 20.3219 14.1586C20.6898 14.4963 20.9302 14.9653 20.9981 15.4782C21.1247 16.5029 21.3596 17.509 21.6981 18.4773C21.8327 18.8593 21.8618 19.2745 21.782 19.6736C21.7023 20.0728 21.517 20.4391 21.2481 20.7293L19.9781 22.0848C21.4017 24.7568 23.4746 26.9692 25.9781 28.4885L27.2481 27.1331C27.52 26.8461 27.8633 26.6484 28.2372 26.5632C28.6112 26.4781 29.0002 26.5092 29.3581 26.6528C30.2654 27.0141 31.2081 27.2647 32.1681 27.3999C32.6539 27.473 33.0975 27.7342 33.4147 28.1336C33.7318 28.5331 33.9003 29.0431 33.8881 29.5665Z" stroke="white" stroke-width="2" stroke-linecap="round" stroke-linejoin="round"/>
</svg>
